<?xml version="1.0" standalone="no"?>
<!DOCTYPE svg PUBLIC "-//W3C//DTD SVG 20010904//EN"
 "http://www.w3.org/TR/2001/REC-SVG-20010904/DTD/svg10.dtd">
<svg version="1.0" xmlns="http://www.w3.org/2000/svg"
 width="245.000000pt" height="215.000000pt" viewBox="0 0 245.000000 215.000000"
 preserveAspectRatio="xMidYMid meet">
<metadata>
Created by potrace 1.16, written by Peter Selinger 2001-2019
</metadata>
<g transform="translate(0.000000,215.000000) scale(0.100000,-0.100000)"
fill="#000000" stroke="none">
<path d="M0 1075 l0 -1075 1225 0 1225 0 0 1075 0 1075 -1225 0 -1225 0 0
-1075z m1840 1055 c15 -8 73 -104 177 -292 2 -5 2 -8 0 -8 -3 0 -26 37 -52 83
-26 45 -63 109 -82 142 -19 33 -40 63 -46 67 -14 9 -1218 11 -1241 2 -23 -9
-20 -27 15 -89 17 -30 29 -55 26 -55 -9 0 -67 109 -67 124 0 8 8 20 18 25 23
14 1226 15 1252 1z m-1336 -296 c3 -9 6 -348 6 -754 0 -668 -2 -740 -16 -755
-9 -9 -23 -15 -31 -13 -14 3 -71 88 -60 88 3 0 16 -18 28 -40 24 -42 39 -49
58 -26 8 9 10 216 9 757 l-3 744 -22 3 c-17 3 -27 -6 -43 -37 -11 -23 -23 -41
-25 -41 -6 0 22 59 37 78 15 17 55 15 62 -4z m635 -786 c-7 -12 -138 -238
-291 -502 -154 -263 -282 -485 -285 -493 -3 -8 0 -19 8 -24 15 -9 1211 -12
1244 -3 13 4 99 141 264 420 134 228 245 414 247 414 7 0 -12 -32 -258 -450
l-234 -395 -619 -3 c-341 -1 -631 0 -644 3 -18 5 -22 11 -19 28 2 13 132 240
287 506 156 266 288 494 293 507 6 13 13 22 15 20 3 -2 -1 -15 -8 -28z"/>
</g>
</svg>
